<svg width="252" height="102" viewBox="0 0 252 102" fill="none" xmlns="http://www.w3.org/2000/svg">
<path d="M10.6578 82H9.49583V74.314L6.31783 82H5.84183L2.67783 74.314V82H1.51583V72.662H3.18183L6.07983 79.69L8.99183 72.662H10.6578V82ZM15.8461 82.168C14.8381 82.168 14.0121 81.8413 13.3681 81.188C12.7241 80.5253 12.4021 79.6667 12.4021 78.612C12.4021 77.6227 12.7195 76.7873 13.3541 76.106C13.9888 75.4153 14.7821 75.07 15.7341 75.07C16.7328 75.07 17.5215 75.4153 18.1001 76.106C18.6881 76.7873 18.9821 77.6507 18.9821 78.696V78.962H13.5081C13.5548 79.6247 13.7975 80.18 14.2361 80.628C14.6748 81.076 15.2441 81.3 15.9441 81.3C16.7841 81.3 17.4795 81.0153 18.0301 80.446L18.5341 81.132C17.8435 81.8227 16.9475 82.168 15.8461 82.168ZM17.9461 78.192C17.9368 77.6133 17.7408 77.0953 17.3581 76.638C16.9755 76.1713 16.4295 75.938 15.7201 75.938C15.0481 75.938 14.5161 76.1667 14.1241 76.624C13.7415 77.0813 13.5361 77.604 13.5081 78.192H17.9461ZM21.1728 82H19.8288L22.8388 78.304L19.8428 75.238H21.1728L24.0848 78.22V75.238H25.1348V78.206L28.0468 75.238H29.3768L26.3668 78.304L29.3908 82H28.0468L25.6108 78.962L25.1348 79.438V82H24.0848V79.438L23.6088 78.962L21.1728 82ZM29.8379 83.722V81.132C30.1833 81.0667 30.4539 80.8613 30.6499 80.516C30.8459 80.1613 31.0046 79.5127 31.1259 78.57L31.5599 75.238H36.2639V81.076H37.0479V83.722H35.9979V82H30.8879V83.722H29.8379ZM32.4839 76.162L32.1759 78.696C32.0173 79.8813 31.6906 80.6747 31.1959 81.076H35.2139V76.162H32.4839ZM38.1056 84.646L38.2736 83.694C38.4416 83.7687 38.6329 83.806 38.8476 83.806C39.0903 83.806 39.2909 83.7547 39.4496 83.652C39.6083 83.5493 39.7436 83.3627 39.8556 83.092L40.3036 82.07L37.4756 75.238H38.6096L40.8636 80.782L43.1036 75.238H44.2516L40.8636 83.372C40.4903 84.268 39.8276 84.7253 38.8756 84.744C38.5956 84.744 38.3389 84.7113 38.1056 84.646ZM46.3969 82H45.3469V75.238H46.3969V78.052H49.9249V75.238H50.9749V82H49.9249V78.976H46.3969V82ZM58.3495 82H57.2995V81.23C56.7302 81.8553 55.9835 82.168 55.0595 82.168C54.4342 82.168 53.8835 81.9673 53.4075 81.566C52.9315 81.1647 52.6935 80.6187 52.6935 79.928C52.6935 79.2187 52.9268 78.6727 53.3935 78.29C53.8695 77.898 54.4248 77.702 55.0595 77.702C56.0208 77.702 56.7675 78.01 57.2995 78.626V77.408C57.2995 76.96 57.1408 76.61 56.8235 76.358C56.5062 76.106 56.0955 75.98 55.5915 75.98C54.7982 75.98 54.1075 76.2927 53.5195 76.918L53.0295 76.19C53.7482 75.4433 54.6488 75.07 55.7315 75.07C56.5062 75.07 57.1362 75.2567 57.6215 75.63C58.1068 76.0033 58.3495 76.5773 58.3495 77.352V82ZM55.4375 81.412C56.2775 81.412 56.8982 81.132 57.2995 80.572V79.298C56.8982 78.738 56.2775 78.458 55.4375 78.458C54.9522 78.458 54.5508 78.598 54.2335 78.878C53.9255 79.1487 53.7715 79.5033 53.7715 79.942C53.7715 80.3713 53.9255 80.726 54.2335 81.006C54.5508 81.2767 54.9522 81.412 55.4375 81.412ZM63.7863 82.168C62.8343 82.168 62.0736 81.7713 61.5043 80.978V84.576H60.4543V75.238H61.5043V76.246C61.7563 75.8913 62.083 75.6067 62.4843 75.392C62.8856 75.1773 63.3196 75.07 63.7863 75.07C64.6823 75.07 65.4056 75.392 65.9563 76.036C66.5163 76.6707 66.7963 77.5293 66.7963 78.612C66.7963 79.6947 66.5163 80.558 65.9563 81.202C65.4056 81.846 64.6823 82.168 63.7863 82.168ZM63.5203 81.23C64.183 81.23 64.7103 80.9873 65.1023 80.502C65.4943 80.0073 65.6903 79.3773 65.6903 78.612C65.6903 77.8467 65.4943 77.2213 65.1023 76.736C64.7103 76.2507 64.183 76.008 63.5203 76.008C63.119 76.008 62.727 76.1153 62.3443 76.33C61.971 76.5353 61.691 76.7873 61.5043 77.086V80.138C61.691 80.446 61.971 80.7073 62.3443 80.922C62.727 81.1273 63.119 81.23 63.5203 81.23ZM73.842 81.146C73.2353 81.8273 72.428 82.168 71.42 82.168C70.412 82.168 69.6 81.8273 68.984 81.146C68.3773 80.4647 68.074 79.62 68.074 78.612C68.074 77.604 68.3773 76.764 68.984 76.092C69.6 75.4107 70.412 75.07 71.42 75.07C72.428 75.07 73.2353 75.4107 73.842 76.092C74.458 76.764 74.766 77.604 74.766 78.612C74.766 79.62 74.458 80.4647 73.842 81.146ZM69.768 80.474C70.1787 80.978 70.7293 81.23 71.42 81.23C72.1107 81.23 72.6567 80.978 73.058 80.474C73.4593 79.9607 73.66 79.34 73.66 78.612C73.66 77.884 73.4593 77.268 73.058 76.764C72.6567 76.26 72.1107 76.008 71.42 76.008C70.7293 76.008 70.1787 76.2647 69.768 76.778C69.3667 77.282 69.166 77.8933 69.166 78.612C69.166 79.34 69.3667 79.9607 69.768 80.474ZM75.6797 83.722V81.132C76.0251 81.0667 76.2957 80.8613 76.4917 80.516C76.6877 80.1613 76.8464 79.5127 76.9677 78.57L77.4017 75.238H82.1057V81.076H82.8897V83.722H81.8397V82H76.7297V83.722H75.6797ZM78.3257 76.162L78.0177 78.696C77.8591 79.8813 77.5324 80.6747 77.0377 81.076H81.0557V76.162H78.3257ZM85.3754 82H84.3254V75.238H85.3754V78.052H88.9034V75.238H89.9534V82H88.9034V78.976H85.3754V82ZM97.328 82H96.278V81.23C95.7087 81.8553 94.962 82.168 94.038 82.168C93.4127 82.168 92.862 81.9673 92.386 81.566C91.91 81.1647 91.672 80.6187 91.672 79.928C91.672 79.2187 91.9053 78.6727 92.372 78.29C92.848 77.898 93.4033 77.702 94.038 77.702C94.9993 77.702 95.746 78.01 96.278 78.626V77.408C96.278 76.96 96.1193 76.61 95.802 76.358C95.4847 76.106 95.074 75.98 94.57 75.98C93.7767 75.98 93.086 76.2927 92.498 76.918L92.008 76.19C92.7267 75.4433 93.6273 75.07 94.71 75.07C95.4847 75.07 96.1147 75.2567 96.6 75.63C97.0853 76.0033 97.328 76.5773 97.328 77.352V82ZM94.416 81.412C95.256 81.412 95.8767 81.132 96.278 80.572V79.298C95.8767 78.738 95.256 78.458 94.416 78.458C93.9307 78.458 93.5293 78.598 93.212 78.878C92.904 79.1487 92.75 79.5033 92.75 79.942C92.75 80.3713 92.904 80.726 93.212 81.006C93.5293 81.2767 93.9307 81.412 94.416 81.412ZM100.441 82H99.2088L101.015 79.34C100.501 79.2747 100.081 79.06 99.7548 78.696C99.4375 78.332 99.2788 77.87 99.2788 77.31C99.2788 76.7127 99.4701 76.218 99.8528 75.826C100.235 75.434 100.758 75.238 101.421 75.238H104.991V82H103.941V79.382H102.093L100.441 82ZM101.533 78.458H103.941V76.162H101.533C101.169 76.162 100.879 76.2693 100.665 76.484C100.459 76.6893 100.357 76.9647 100.357 77.31C100.357 77.6553 100.459 77.9353 100.665 78.15C100.87 78.3553 101.159 78.458 101.533 78.458ZM113.68 82.168C112.682 82.168 111.87 81.832 111.244 81.16C110.619 80.4787 110.306 79.6293 110.306 78.612C110.306 77.5947 110.619 76.75 111.244 76.078C111.87 75.406 112.682 75.07 113.68 75.07C114.726 75.07 115.552 75.462 116.158 76.246L115.458 76.89C115.029 76.302 114.455 76.008 113.736 76.008C113.027 76.008 112.458 76.2507 112.028 76.736C111.608 77.2213 111.398 77.8467 111.398 78.612C111.398 79.3773 111.608 80.0073 112.028 80.502C112.458 80.9873 113.027 81.23 113.736 81.23C114.446 81.23 115.02 80.936 115.458 80.348L116.158 80.992C115.552 81.776 114.726 82.168 113.68 82.168ZM120.682 82.168C119.674 82.168 118.848 81.8413 118.204 81.188C117.56 80.5253 117.238 79.6667 117.238 78.612C117.238 77.6227 117.555 76.7873 118.19 76.106C118.825 75.4153 119.618 75.07 120.57 75.07C121.569 75.07 122.357 75.4153 122.936 76.106C123.524 76.7873 123.818 77.6507 123.818 78.696V78.962H118.344C118.391 79.6247 118.633 80.18 119.072 80.628C119.511 81.076 120.08 81.3 120.78 81.3C121.62 81.3 122.315 81.0153 122.866 80.446L123.37 81.132C122.679 81.8227 121.783 82.168 120.682 82.168ZM122.782 78.192C122.773 77.6133 122.577 77.0953 122.194 76.638C121.811 76.1713 121.265 75.938 120.556 75.938C119.884 75.938 119.352 76.1667 118.96 76.624C118.577 77.0813 118.372 77.604 118.344 78.192H122.782ZM127.801 82H126.751V76.162H124.791V75.238H129.775V76.162H127.801V82ZM131.152 75.238H132.202V77.856H134.736C135.408 77.856 135.93 78.0567 136.304 78.458C136.677 78.85 136.864 79.34 136.864 79.928C136.864 80.516 136.672 81.0107 136.29 81.412C135.916 81.804 135.398 82 134.736 82H131.152V75.238ZM134.624 78.78H132.202V81.076H134.624C134.997 81.076 135.282 80.9733 135.478 80.768C135.683 80.5533 135.786 80.2733 135.786 79.928C135.786 79.5827 135.683 79.3073 135.478 79.102C135.282 78.8873 134.997 78.78 134.624 78.78ZM148.025 82H146.681L144.245 78.962L143.125 80.068V82H142.075V75.238H143.125V78.836L146.681 75.238H148.011L145.015 78.304L148.025 82ZM148.469 82.168V81.3C148.786 81.3 149.047 81.09 149.253 80.67C149.458 80.25 149.626 79.55 149.757 78.57L150.191 75.238H154.895V82H153.845V76.162H151.115L150.807 78.696C150.657 79.9373 150.396 80.8287 150.023 81.37C149.649 81.902 149.131 82.168 148.469 82.168ZM157.999 82H156.991V75.238H158.041V80.404L161.583 75.238H162.619V82H161.569V76.736L157.999 82ZM165.766 82H164.716V75.238H165.766V78.052H169.294V75.238H170.344V82H169.294V78.976H165.766V82ZM173.449 82H172.441V75.238H173.491V80.404L177.033 75.238H178.069V82H177.019V76.736L173.449 82ZM186.115 82H184.771L182.335 78.962L181.215 80.068V82H180.165V75.238H181.215V78.836L184.771 75.238H186.101L183.105 78.304L186.115 82ZM190.168 82.168V81.3C190.485 81.3 190.747 81.09 190.952 80.67C191.157 80.25 191.325 79.55 191.456 78.57L191.89 75.238H196.594V82H195.544V76.162H192.814L192.506 78.696C192.357 79.9373 192.095 80.8287 191.722 81.37C191.349 81.902 190.831 82.168 190.168 82.168ZM203.969 82H202.919V81.23C202.349 81.8553 201.603 82.168 200.679 82.168C200.053 82.168 199.503 81.9673 199.027 81.566C198.551 81.1647 198.313 80.6187 198.313 79.928C198.313 79.2187 198.546 78.6727 199.013 78.29C199.489 77.898 200.044 77.702 200.679 77.702C201.64 77.702 202.387 78.01 202.919 78.626V77.408C202.919 76.96 202.76 76.61 202.443 76.358C202.125 76.106 201.715 75.98 201.211 75.98C200.417 75.98 199.727 76.2927 199.139 76.918L198.649 76.19C199.367 75.4433 200.268 75.07 201.351 75.07C202.125 75.07 202.755 75.2567 203.241 75.63C203.726 76.0033 203.969 76.5773 203.969 77.352V82ZM201.057 81.412C201.897 81.412 202.517 81.132 202.919 80.572V79.298C202.517 78.738 201.897 78.458 201.057 78.458C200.571 78.458 200.17 78.598 199.853 78.878C199.545 79.1487 199.391 79.5033 199.391 79.942C199.391 80.3713 199.545 80.726 199.853 81.006C200.17 81.2767 200.571 81.412 201.057 81.412ZM208.467 82.168C207.17 82.168 206.153 81.7993 205.415 81.062L205.933 80.39C206.568 80.9967 207.413 81.3 208.467 81.3C209.074 81.3 209.555 81.1927 209.909 80.978C210.273 80.7633 210.455 80.4787 210.455 80.124C210.455 79.3773 209.746 79.004 208.327 79.004H206.815V78.15H208.327C208.915 78.15 209.396 78.0567 209.769 77.87C210.143 77.674 210.329 77.3893 210.329 77.016C210.329 76.6987 210.143 76.442 209.769 76.246C209.396 76.0407 208.925 75.938 208.355 75.938C207.413 75.938 206.657 76.2273 206.087 76.806L205.541 76.162C206.241 75.4433 207.165 75.084 208.313 75.084C209.237 75.0747 209.984 75.2333 210.553 75.56C211.132 75.8773 211.421 76.3207 211.421 76.89C211.421 77.3567 211.23 77.7347 210.847 78.024C210.474 78.3133 210.059 78.486 209.601 78.542C210.077 78.5793 210.521 78.738 210.931 79.018C211.351 79.298 211.561 79.69 211.561 80.194C211.561 80.7727 211.281 81.2487 210.721 81.622C210.171 81.986 209.419 82.168 208.467 82.168ZM216.317 82.168C215.309 82.168 214.483 81.8413 213.839 81.188C213.195 80.5253 212.873 79.6667 212.873 78.612C212.873 77.6227 213.19 76.7873 213.825 76.106C214.46 75.4153 215.253 75.07 216.205 75.07C217.204 75.07 217.992 75.4153 218.571 76.106C219.159 76.7873 219.453 77.6507 219.453 78.696V78.962H213.979C214.026 79.6247 214.268 80.18 214.707 80.628C215.146 81.076 215.715 81.3 216.415 81.3C217.255 81.3 217.95 81.0153 218.501 80.446L219.005 81.132C218.314 81.8227 217.418 82.168 216.317 82.168ZM218.417 78.192C218.408 77.6133 218.212 77.0953 217.829 76.638C217.446 76.1713 216.9 75.938 216.191 75.938C215.519 75.938 214.987 76.1667 214.595 76.624C214.212 77.0813 214.007 77.604 213.979 78.192H218.417ZM224.486 82.168C223.534 82.168 222.773 81.7713 222.204 80.978V84.576H221.154V75.238H222.204V76.246C222.456 75.8913 222.782 75.6067 223.184 75.392C223.585 75.1773 224.019 75.07 224.486 75.07C225.382 75.07 226.105 75.392 226.656 76.036C227.216 76.6707 227.496 77.5293 227.496 78.612C227.496 79.6947 227.216 80.558 226.656 81.202C226.105 81.846 225.382 82.168 224.486 82.168ZM224.22 81.23C224.882 81.23 225.41 80.9873 225.802 80.502C226.194 80.0073 226.39 79.3773 226.39 78.612C226.39 77.8467 226.194 77.2213 225.802 76.736C225.41 76.2507 224.882 76.008 224.22 76.008C223.818 76.008 223.426 76.1153 223.044 76.33C222.67 76.5353 222.39 76.7873 222.204 77.086V80.138C222.39 80.446 222.67 80.7073 223.044 80.922C223.426 81.1273 223.818 81.23 224.22 81.23ZM230.215 82H229.165V75.238H230.215V78.052H233.743V75.238H234.793V82H233.743V78.976H230.215V82ZM242.266 81.146C241.659 81.8273 240.852 82.168 239.844 82.168C238.836 82.168 238.024 81.8273 237.408 81.146C236.801 80.4647 236.498 79.62 236.498 78.612C236.498 77.604 236.801 76.764 237.408 76.092C238.024 75.4107 238.836 75.07 239.844 75.07C240.852 75.07 241.659 75.4107 242.266 76.092C242.882 76.764 243.19 77.604 243.19 78.612C243.19 79.62 242.882 80.4647 242.266 81.146ZM238.192 80.474C238.603 80.978 239.153 81.23 239.844 81.23C240.535 81.23 241.081 80.978 241.482 80.474C241.883 79.9607 242.084 79.34 242.084 78.612C242.084 77.884 241.883 77.268 241.482 76.764C241.081 76.26 240.535 76.008 239.844 76.008C239.153 76.008 238.603 76.2647 238.192 76.778C237.791 77.282 237.59 77.8933 237.59 78.612C237.59 79.34 237.791 79.9607 238.192 80.474ZM245.91 82H244.902V75.238H245.952V80.404L249.494 75.238H250.53V82H249.48V76.736L245.91 82ZM250.166 73.236C249.559 74.0573 248.742 74.468 247.716 74.468C246.698 74.468 245.877 74.0573 245.252 73.236L245.77 72.788C246.255 73.46 246.904 73.796 247.716 73.796C248.537 73.796 249.181 73.46 249.648 72.788L250.166 73.236ZM47.7486 98.168C46.7033 98.168 45.8773 97.776 45.2706 96.992L45.9426 96.376C46.3999 96.992 46.9879 97.3 47.7066 97.3C48.3506 97.3 48.8733 97.0947 49.2746 96.684C49.6853 96.2733 49.9279 95.7227 50.0026 95.032H46.6006V94.122H49.9886C49.9046 93.4593 49.6573 92.932 49.2466 92.54C48.8453 92.1387 48.3319 91.938 47.7066 91.938C46.9786 91.938 46.3906 92.246 45.9426 92.862L45.2706 92.246C45.8773 91.462 46.7033 91.07 47.7486 91.07C48.7473 91.07 49.5593 91.406 50.1846 92.078C50.8193 92.75 51.1366 93.5947 51.1366 94.612C51.1366 95.6293 50.8193 96.4787 50.1846 97.16C49.5593 97.832 48.7473 98.168 47.7486 98.168ZM58.4602 98H57.4102V92.162H53.8822V98H52.8322V91.238H58.4602V98ZM61.5648 98H60.5568V91.238H61.6068V96.404L65.1488 91.238H66.1848V98H65.1348V92.736L61.5648 98ZM67.4834 98.168V97.3C67.8008 97.3 68.0621 97.09 68.2674 96.67C68.4728 96.25 68.6408 95.55 68.7714 94.57L69.2054 91.238H73.9094V98H72.8594V92.162H70.1294L69.8214 94.696C69.6721 95.9373 69.4108 96.8287 69.0374 97.37C68.6641 97.902 68.1461 98.168 67.4834 98.168ZM77.0141 98H75.7821L77.5881 95.34C77.0747 95.2747 76.6547 95.06 76.3281 94.696C76.0107 94.332 75.8521 93.87 75.8521 93.31C75.8521 92.7127 76.0434 92.218 76.4261 91.826C76.8087 91.434 77.3314 91.238 77.9941 91.238H81.5641V98H80.5141V95.382H78.6661L77.0141 98ZM78.1061 94.458H80.5141V92.162H78.1061C77.7421 92.162 77.4527 92.2693 77.2381 92.484C77.0327 92.6893 76.9301 92.9647 76.9301 93.31C76.9301 93.6553 77.0327 93.9353 77.2381 94.15C77.4434 94.3553 77.7327 94.458 78.1061 94.458ZM89.0243 99.722V98H83.6623V91.238H84.7123V97.076H88.2403V91.238H89.2903V97.076H90.0743V99.722H89.0243ZM92.518 98H91.51V91.238H92.56V96.404L96.102 91.238H97.138V98H96.088V92.736L92.518 98ZM100.243 98H99.2346V91.238H100.285V96.404L103.827 91.238H104.863V98H103.813V92.736L100.243 98ZM111.577 98H110.569V91.238H111.619V96.404L115.161 91.238H116.197V98H115.147V92.736L111.577 98ZM127.853 98H126.509L124.073 94.962L122.953 96.068V98H121.903V91.238H122.953V94.836L126.509 91.238H127.839L124.843 94.304L127.853 98ZM134.429 97.146C133.822 97.8273 133.015 98.168 132.007 98.168C130.999 98.168 130.187 97.8273 129.571 97.146C128.964 96.4647 128.661 95.62 128.661 94.612C128.661 93.604 128.964 92.764 129.571 92.092C130.187 91.4107 130.999 91.07 132.007 91.07C133.015 91.07 133.822 91.4107 134.429 92.092C135.045 92.764 135.353 93.604 135.353 94.612C135.353 95.62 135.045 96.4647 134.429 97.146ZM130.355 96.474C130.766 96.978 131.316 97.23 132.007 97.23C132.698 97.23 133.244 96.978 133.645 96.474C134.046 95.9607 134.247 95.34 134.247 94.612C134.247 93.884 134.046 93.268 133.645 92.764C133.244 92.26 132.698 92.008 132.007 92.008C131.316 92.008 130.766 92.2647 130.355 92.778C129.954 93.282 129.753 93.8933 129.753 94.612C129.753 95.34 129.954 95.9607 130.355 96.474ZM140.047 98.168C139.048 98.168 138.236 97.832 137.611 97.16C136.985 96.4787 136.673 95.6293 136.673 94.612C136.673 93.5947 136.985 92.75 137.611 92.078C138.236 91.406 139.048 91.07 140.047 91.07C141.092 91.07 141.918 91.462 142.525 92.246L141.825 92.89C141.395 92.302 140.821 92.008 140.103 92.008C139.393 92.008 138.824 92.2507 138.395 92.736C137.975 93.2213 137.765 93.8467 137.765 94.612C137.765 95.3773 137.975 96.0073 138.395 96.502C138.824 96.9873 139.393 97.23 140.103 97.23C140.812 97.23 141.386 96.936 141.825 96.348L142.525 96.992C141.918 97.776 141.092 98.168 140.047 98.168ZM150.898 98H149.848V92.694L147.65 98H147.258L145.046 92.694V98H143.996V91.238H145.382L147.454 96.25L149.498 91.238H150.898V98ZM156.044 98.168C155.036 98.168 154.21 97.8413 153.566 97.188C152.922 96.5253 152.6 95.6667 152.6 94.612C152.6 93.6227 152.918 92.7873 153.552 92.106C154.187 91.4153 154.98 91.07 155.932 91.07C156.931 91.07 157.72 91.4153 158.298 92.106C158.886 92.7873 159.18 93.6507 159.18 94.696V94.962H153.706C153.753 95.6247 153.996 96.18 154.434 96.628C154.873 97.076 155.442 97.3 156.142 97.3C156.982 97.3 157.678 97.0153 158.228 96.446L158.732 97.132C158.042 97.8227 157.146 98.168 156.044 98.168ZM158.144 94.192C158.135 93.6133 157.939 93.0953 157.556 92.638C157.174 92.1713 156.628 91.938 155.918 91.938C155.246 91.938 154.714 92.1667 154.322 92.624C153.94 93.0813 153.734 93.604 153.706 94.192H158.144ZM163.163 98H162.113V92.162H160.153V91.238H165.137V92.162H163.163V98ZM171.89 97.146C171.283 97.8273 170.476 98.168 169.468 98.168C168.46 98.168 167.648 97.8273 167.032 97.146C166.425 96.4647 166.122 95.62 166.122 94.612C166.122 93.604 166.425 92.764 167.032 92.092C167.648 91.4107 168.46 91.07 169.468 91.07C170.476 91.07 171.283 91.4107 171.89 92.092C172.506 92.764 172.814 93.604 172.814 94.612C172.814 95.62 172.506 96.4647 171.89 97.146ZM167.816 96.474C168.227 96.978 168.777 97.23 169.468 97.23C170.159 97.23 170.705 96.978 171.106 96.474C171.507 95.9607 171.708 95.34 171.708 94.612C171.708 93.884 171.507 93.268 171.106 92.764C170.705 92.26 170.159 92.008 169.468 92.008C168.777 92.008 168.227 92.2647 167.816 92.778C167.415 93.282 167.214 93.8933 167.214 94.612C167.214 95.34 167.415 95.9607 167.816 96.474ZM173.728 98.168V97.3C174.045 97.3 174.306 97.09 174.512 96.67C174.717 96.25 174.885 95.55 175.016 94.57L175.45 91.238H180.154V98H179.104V92.162H176.374L176.066 94.696C175.916 95.9373 175.655 96.8287 175.282 97.37C174.908 97.902 174.39 98.168 173.728 98.168ZM187.626 97.146C187.02 97.8273 186.212 98.168 185.204 98.168C184.196 98.168 183.384 97.8273 182.768 97.146C182.162 96.4647 181.858 95.62 181.858 94.612C181.858 93.604 182.162 92.764 182.768 92.092C183.384 91.4107 184.196 91.07 185.204 91.07C186.212 91.07 187.02 91.4107 187.626 92.092C188.242 92.764 188.55 93.604 188.55 94.612C188.55 95.62 188.242 96.4647 187.626 97.146ZM183.552 96.474C183.963 96.978 184.514 97.23 185.204 97.23C185.895 97.23 186.441 96.978 186.842 96.474C187.244 95.9607 187.444 95.34 187.444 94.612C187.444 93.884 187.244 93.268 186.842 92.764C186.441 92.26 185.895 92.008 185.204 92.008C184.514 92.008 183.963 92.2647 183.552 92.778C183.151 93.282 182.95 93.8933 182.95 94.612C182.95 95.34 183.151 95.9607 183.552 96.474ZM194.994 91.238V92.162H191.312V98H190.262V91.238H194.994ZM197.368 98H196.36V91.238H197.41V96.404L200.952 91.238H201.988V98H200.938V92.736L197.368 98ZM205.092 98H204.084V91.238H205.134V96.404L208.676 91.238H209.712V98H208.662V92.736L205.092 98Z" fill="#8C8C8C"/>
<path fill-rule="evenodd" clip-rule="evenodd" d="M128.407 0L131.679 6.66311L138.924 7.70274L133.689 12.9009L134.951 20.2256L128.407 16.7759L121.958 20.2256L123.173 12.9009L117.938 7.70274L125.183 6.66311L128.407 0Z" fill="url(#paint0_linear)"/>
<path fill-rule="evenodd" clip-rule="evenodd" d="M158.553 7.23041L160.89 12.0505L166.218 12.9011L162.386 16.6344L163.274 21.9743L158.553 19.4697L153.786 21.9743L154.674 16.6344L150.841 12.9011L156.169 12.0505L158.553 7.23041Z" fill="url(#paint1_linear)"/>
<path fill-rule="evenodd" clip-rule="evenodd" d="M98.3545 7.23041L100.691 12.0505L106.02 12.9011L102.187 16.6344L103.122 21.9743L98.3545 19.4697L93.5872 21.9743L94.522 16.6344L90.6895 12.9011L96.0176 12.0505L98.3545 7.23041Z" fill="url(#paint2_linear)"/>
<path fill-rule="evenodd" clip-rule="evenodd" d="M182.016 17.91L183.605 21.218L187.203 21.7378L184.586 24.2896L185.194 27.8811L182.016 26.1798L178.791 27.8811L179.445 24.2896L176.828 21.7378L180.426 21.218L182.016 17.91Z" fill="url(#paint3_linear)"/>
<path fill-rule="evenodd" clip-rule="evenodd" d="M74.8453 17.91L76.4811 21.218L80.0332 21.7378L77.4159 24.2896L78.0235 27.8811L74.8453 26.1798L71.6671 27.8811L72.2747 24.2896L69.7041 21.7378L73.2562 21.218L74.8453 17.91Z" fill="url(#paint4_linear)"/>
<path fill-rule="evenodd" clip-rule="evenodd" d="M23.4333 41.9041L10.9542 59.9852C10.4869 60.7232 9.36514 60.8616 8.57059 60.8616C8.43038 60.8616 8.38364 60.8616 8.24343 60.8616H8.05648C6.93476 60.8616 6 60.4465 6 59.2472C6 58.7399 6.23369 58.2786 6.51412 57.8173L20.5355 37.6605C20.7225 37.3376 20.9562 37.0609 21.2366 36.8303C21.8909 36.2768 22.592 36 23.4333 36C24.6485 36 25.5833 36.6458 26.2843 37.6144L40.3057 57.7712C40.5862 58.1863 40.7731 58.6937 40.7731 59.2011C40.7731 60.3542 39.7916 60.7232 38.7634 60.8616H38.7167C38.6232 60.8616 38.5764 60.8616 38.5297 60.8616H38.1558C37.3612 60.8616 36.333 60.7232 35.8189 59.9852L23.4333 41.9041ZM53.9533 50.7601H49.7936V58.9244C49.7936 60.1236 49.1392 60.9077 47.8773 60.9077H46.6154C45.3535 60.9077 44.6991 60.1697 44.6991 58.9244V37.9834C44.6991 36.7841 45.3535 36.0461 46.6154 36.0461H47.8773C49.1392 36.0461 49.7936 36.738 49.7936 37.9834V46.3782H53.9533V43.0111C53.9533 36.9686 60.4966 36.0922 65.3106 36.0922H71.48C73.7702 36.0922 76.8082 36.2306 78.9114 37.0148C81.6222 38.0756 82.8841 40.1513 82.8841 43.0111V53.9889C82.8841 59.9852 76.2006 60.8616 71.5268 60.8616H65.3574C61.852 60.8616 56.9445 60.3542 54.8413 57.1716C54.2337 56.2491 53.9533 55.1421 53.9533 54.0351V50.7601ZM65.2171 56.4797H71.5268C73.2094 56.4797 77.7897 56.3875 77.7897 53.8967V43.0572C77.7897 40.4742 73.2561 40.3819 71.5268 40.3819H65.2639C63.5346 40.3819 59.0477 40.5203 59.0477 43.0572V53.9428C59.001 56.4336 63.4878 56.4797 65.2171 56.4797ZM124.995 44.4871L112.89 59.5701C112.095 60.5387 111.067 61 109.759 61C108.543 61 107.468 60.5387 106.674 59.5701L94.335 44.3948V58.8782C94.335 60.0775 93.6806 60.8616 92.4187 60.8616H91.1568C89.8948 60.8616 89.2405 60.1236 89.2405 58.8782V38.7214C89.2405 37.9373 89.6144 37.2915 90.1753 36.7841C90.7361 36.2768 91.4372 36.0922 92.2317 36.0922C93.3067 36.0922 94.2415 36.5996 94.8958 37.4299L109.805 55.2804L124.481 37.3838C125.182 36.5074 126.164 36.1384 127.332 36.1384C129.155 36.1384 130.136 37.1531 130.136 38.952V58.9244C130.136 60.1236 129.482 60.9077 128.22 60.9077H126.911C125.696 60.9077 125.042 60.1697 125.042 58.9244V44.4871H124.995ZM141.54 50.7601V54.3579C141.54 56.4336 145.279 56.5258 146.682 56.5258H161.871C163.087 56.5258 163.788 57.2638 163.788 58.5092V58.9244C163.788 60.1236 163.087 60.9077 161.871 60.9077H146.448C145.84 60.9077 145.233 60.8616 144.672 60.7694C140.839 60.3542 136.493 59.0166 136.493 54.4963V42.5959C136.493 39.9207 138.175 38.214 140.559 37.1993C142.569 36.369 144.719 36.0461 146.869 36.0461H151.075C152.29 36.0461 152.991 36.738 152.991 37.9834V38.4447C152.991 39.69 152.29 40.3819 151.075 40.3819H146.682L145.466 40.4742C144.251 40.5664 141.494 40.8432 141.494 42.5498V46.3782H161.871C163.227 46.3782 163.928 47.1162 163.834 48.4539L163.788 48.9151C163.694 50.0683 163.04 50.714 161.871 50.714H141.54V50.7601ZM194.775 50.7601H174.537V58.9244C174.537 60.1236 173.883 60.9077 172.621 60.9077H171.313C170.097 60.9077 169.443 60.1697 169.443 58.9244V37.9834C169.443 36.7841 170.097 36.0461 171.313 36.0461H172.621C173.836 36.0461 174.537 36.738 174.537 37.9834V46.3782H194.775V37.9834C194.775 36.7841 195.429 36.0461 196.691 36.0461H197.907C199.168 36.0461 199.823 36.738 199.823 37.9834V58.9244C199.823 60.1236 199.168 60.9077 197.907 60.9077H196.691C195.429 60.9077 194.775 60.1697 194.775 58.9244V50.7601ZM246 37.9834V38.4447C246 39.69 245.299 40.3819 243.99 40.3819H228.193C227.024 40.3819 222.865 40.428 222.865 42.2731V54.1734C222.865 55.3727 224.08 55.9262 225.108 56.203C226.23 56.4797 227.725 56.5258 228.847 56.5258H243.897C245.159 56.5258 245.86 57.2177 245.86 58.5092V58.9244C245.86 60.1697 245.159 60.9077 243.897 60.9077H228.8C227.585 60.9077 226.09 60.9539 224.874 60.7694C223.566 60.631 222.257 60.2159 221.135 59.5701C219.032 58.4631 217.583 56.7565 217.583 54.3118V42.3192C217.583 40.5664 218.518 39.1827 219.873 38.1218C221.182 37.1531 222.678 36.5535 224.314 36.2768C225.529 36.0923 226.884 36.0461 228.099 36.0461H243.99C245.252 36.0461 246 36.738 246 37.9834ZM211.367 47.5775V47.9926C211.367 48.4077 211.367 48.7768 211.367 49.1919V49.607C211.367 52.6974 211.367 55.8339 211.367 58.9244C211.367 60.1697 210.666 60.9077 209.404 60.9077H208.095C206.833 60.9077 206.132 60.2159 206.132 58.9244V37.9834C206.132 36.738 206.833 36.0461 208.095 36.0461H209.404C210.666 36.0461 211.367 36.738 211.367 37.9834C211.367 41.1661 211.367 44.3948 211.367 47.5775Z" fill="url(#paint5_linear)"/>
<defs>
<linearGradient id="paint0_linear" x1="128.43" y1="20.2129" x2="128.43" y2="0.00600766" gradientUnits="userSpaceOnUse">
<stop stop-color="#005AA5"/>
<stop offset="1" stop-color="#1E91CD"/>
</linearGradient>
<linearGradient id="paint1_linear" x1="158.529" y1="21.965" x2="158.529" y2="7.23479" gradientUnits="userSpaceOnUse">
<stop stop-color="#005AA5"/>
<stop offset="1" stop-color="#1E91CD"/>
</linearGradient>
<linearGradient id="paint2_linear" x1="98.3543" y1="21.965" x2="98.3543" y2="7.23479" gradientUnits="userSpaceOnUse">
<stop stop-color="#005AA5"/>
<stop offset="1" stop-color="#1E91CD"/>
</linearGradient>
<linearGradient id="paint3_linear" x1="182.015" y1="27.8748" x2="182.015" y2="17.913" gradientUnits="userSpaceOnUse">
<stop stop-color="#005AA5"/>
<stop offset="1" stop-color="#1E91CD"/>
</linearGradient>
<linearGradient id="paint4_linear" x1="74.8685" y1="27.8748" x2="74.8685" y2="17.913" gradientUnits="userSpaceOnUse">
<stop stop-color="#005AA5"/>
<stop offset="1" stop-color="#1E91CD"/>
</linearGradient>
<linearGradient id="paint5_linear" x1="125.996" y1="60.9843" x2="125.996" y2="36.0074" gradientUnits="userSpaceOnUse">
<stop stop-color="#005AA5"/>
<stop offset="1" stop-color="#1E91CD"/>
</linearGradient>
</defs>
</svg>
